<?xml version="1.0" encoding="utf-8"?>
<!-- Generator: Adobe Illustrator 17.0.0, SVG Export Plug-In . SVG Version: 6.00 Build 0)  -->
<!DOCTYPE svg PUBLIC "-//W3C//DTD SVG 1.1//EN" "http://www.w3.org/Graphics/SVG/1.1/DTD/svg11.dtd">
<svg version="1.1" id="Capa_1" xmlns="http://www.w3.org/2000/svg" xmlns:xlink="http://www.w3.org/1999/xlink" x="0px" y="0px"
	 width="200px" height="200px" viewBox="0 0 200 200" enable-background="new 0 0 200 200" xml:space="preserve">
<g>
	
		<rect x="93.205" y="98.638" transform="matrix(0.5002 0.8659 -0.8659 0.5002 138.548 -28.1954)" fill="#58595B" width="0.985" height="14.555"/>
	
		<rect x="86.42" y="127.252" transform="matrix(-0.866 -0.5 0.5 -0.866 110.9742 285.2233)" fill="#58595B" width="14.555" height="0.985"/>
	<path fill="#58595B" d="M180.077,125.507l-16.013,9.248l-16.018-9.248l-16.014,9.248l-15.525-8.963V107.3l-16.015-9.248V82.913
		c1.186-0.372,1.948-1.471,1.948-2.715c0-1.528-1.126-2.842-2.803-2.842c-0.732,0-1.352,0.263-1.828,0.675l-12.84-7.414l15.277-8.82
		l-0.493-0.853l-15.77,9.105l-16.016-9.247l-16.015,9.247l-16.013-9.247l-16.015,9.247L4.153,60.943L3.66,61.796l15.769,9.106
		v17.684h0.988V70.902l15.522-8.964l16.013,9.248l16.015-9.248L83,70.616L67.475,79.58v19.06l16.016,9.248v17.903l-15.769,9.105
		l0.493,0.853l15.769-9.105l16.015,9.247l16.019-9.247l16.015,9.247l16.014-9.248l16.018,9.248l16.013-9.248l15.767,9.106
		l0.495-0.853L180.077,125.507z M97.721,79.116l1.788,1.031v2.321c-1.193-0.069-2.047-1.055-2.047-2.271
		C97.462,79.803,97.56,79.439,97.721,79.116z M99.62,77.93c1.26,0,2.175,1.024,2.175,2.284c0,0.95-0.513,1.756-1.303,2.095v-2.73
		l-2.144-1.236C98.699,78.085,99.133,77.93,99.62,77.93z M68.463,80.148l15.521-8.962l13.2,7.62
		c-0.231,0.422-0.367,0.902-0.367,1.409c0,1.492,1.079,2.771,2.692,2.832v15.007l-15.542,8.973l-15.504-8.955V80.148z
		 M115.524,125.791l-15.525,8.963l-15.522-8.963v-17.904l15.538-8.973l15.51,8.953V125.791z"/>
	<rect x="112.588" y="110.151" fill="#58595B" width="0.985" height="13.356"/>
	<rect x="70.412" y="82.432" fill="#58595B" width="0.984" height="13.356"/>
	<polygon fill="#58595B" points="55.04,133.592 55.04,139.105 55.663,139.105 55.663,136.624 58.845,136.624 58.845,139.105 
		59.465,139.105 59.465,133.592 58.845,133.592 58.845,136.042 55.663,136.042 55.663,133.592 	"/>
	<path fill="#58595B" d="M63.587,139.199c1.677,0,2.82-1.331,2.82-2.859c0-1.528-1.126-2.843-2.803-2.843s-2.82,1.33-2.82,2.859
		C60.784,137.884,61.91,139.199,63.587,139.199z M63.587,134.073c1.26,0,2.175,1.024,2.175,2.284c0,1.26-0.898,2.269-2.158,2.269
		c-1.26,0-2.175-1.024-2.175-2.284C61.428,135.081,62.327,134.073,63.587,134.073z"/>
	<path fill="#58595B" d="M100.171,123.192c0.441,0,0.779,0.172,1.14,0.475l0.317-0.421c-0.423-0.345-0.848-0.551-1.429-0.551
		c-1.264,0-2.009,1.152-2.009,2.628c0,0.994,0.222,1.489,0.606,1.876c0.303,0.303,0.739,0.49,1.271,0.49
		c0.978,0,1.73-0.676,1.73-1.614c0-0.912-0.764-1.491-1.668-1.491c-0.705,0-1.11,0.352-1.371,0.739
		C98.75,124.075,99.294,123.192,100.171,123.192z M100.063,125.055c0.695,0,1.176,0.441,1.176,1.041
		c0,0.621-0.453,1.111-1.165,1.111c-0.713,0-1.222-0.463-1.222-1.09C98.852,125.572,99.337,125.055,100.063,125.055z"/>
	<path fill="#58595B" d="M105.742,113.282c0,0.815,0.787,1.372,1.814,1.372c1.031,0,1.815-0.551,1.815-1.38
		c0-0.579-0.42-0.972-0.995-1.186c0.45-0.207,0.828-0.552,0.828-1.118c0-0.752-0.764-1.283-1.649-1.283
		c-0.883,0-1.647,0.53-1.647,1.283c0,0.566,0.379,0.91,0.826,1.118C106.156,112.295,105.742,112.703,105.742,113.282z
		 M106.451,111.006c0-0.49,0.478-0.841,1.105-0.841c0.631,0,1.103,0.359,1.103,0.841c0,0.532-0.49,0.89-1.103,0.89
		C106.943,111.896,106.451,111.537,106.451,111.006z M107.555,112.345c0.706,0,1.263,0.379,1.263,0.924
		c0,0.497-0.468,0.91-1.263,0.91c-0.793,0-1.26-0.414-1.26-0.91C106.295,112.723,106.851,112.345,107.555,112.345z"/>
	<polygon fill="#58595B" points="106.086,119.118 108.743,119.118 106.565,123.451 107.168,123.451 109.362,119.029 
		109.362,118.622 106.086,118.622 	"/>
	<path fill="#58595B" d="M92.464,123.036c-0.49,0-0.952-0.255-1.374-0.662l-0.359,0.393c0.436,0.435,1.034,0.766,1.724,0.766
		c1.007,0,1.727-0.641,1.727-1.593c0-0.925-0.732-1.483-1.671-1.483c-0.401,0-0.67,0.09-0.951,0.214l0.102-1.545h2.304v-0.503
		h-2.779l-0.137,2.352l0.364,0.241c0.283-0.152,0.606-0.276,1.012-0.276c0.712,0,1.202,0.414,1.202,1.022
		C93.629,122.582,93.154,123.036,92.464,123.036z"/>
	<polygon fill="#58595B" points="92.856,83.554 92.856,87.852 93.396,87.852 93.396,82.988 92.996,82.988 91.817,83.395 
		91.946,83.837 	"/>
	<path fill="#58595B" d="M85.622,79.445h-2.558l1.29-1.145c0.849-0.738,1.222-1.172,1.222-1.884c0-0.793-0.621-1.372-1.496-1.372
		c-0.848,0-1.305,0.379-1.738,1.026l0.4,0.29c0.387-0.538,0.743-0.828,1.295-0.828c0.527,0,0.974,0.359,0.974,0.924
		c0,0.483-0.269,0.856-1.009,1.518l-1.752,1.545v0.421h3.374V79.445z"/>
	<path fill="#58595B" d="M76.03,87.438c-0.592,0-1.041-0.263-1.412-0.718l-0.396,0.352c0.396,0.511,0.994,0.862,1.802,0.862
		c0.895,0,1.613-0.592,1.613-1.462c0-0.889-0.742-1.297-1.59-1.366l1.516-1.683v-0.401h-3.082v0.49h2.359l-1.525,1.717l0.108,0.325
		h0.309c0.802,0,1.355,0.331,1.355,0.937C77.087,87.065,76.616,87.438,76.03,87.438z"/>
	<path fill="#58595B" d="M77.381,91.853h-0.476l-2.731,3.324l0.14,0.394h2.544v1.145h0.522v-1.145h0.755v-0.456h-0.755V91.853z
		 M76.858,95.115h-2.027l2.027-2.49V95.115z"/>
	
		<rect x="22.357" y="68.673" transform="matrix(0.866 -0.5 0.5 0.866 -30.613 24.0849)" fill="#58595B" width="14.555" height="0.984"/>
</g>
</svg>
