<?xml version="1.0" encoding="utf-8"?>
<!-- Generator: Adobe Illustrator 17.0.0, SVG Export Plug-In . SVG Version: 6.00 Build 0)  -->
<!DOCTYPE svg PUBLIC "-//W3C//DTD SVG 1.1//EN" "http://www.w3.org/Graphics/SVG/1.1/DTD/svg11.dtd">
<svg version="1.1" id="Capa_1" xmlns="http://www.w3.org/2000/svg" xmlns:xlink="http://www.w3.org/1999/xlink" x="0px" y="0px"
	 width="200px" height="200px" viewBox="0 0 200 200" enable-background="new 0 0 200 200" xml:space="preserve">
<g>
	
		<rect x="96.31" y="124.489" transform="matrix(-0.5002 -0.8659 0.8659 -0.5002 30.5378 282.6819)" fill="#58595B" width="1.088" height="16.076"/>
	
		<rect x="88.816" y="107.87" transform="matrix(-0.866 -0.5 0.5 -0.866 126.5229 250.732)" fill="#58595B" width="16.076" height="1.088"/>
	
		<rect x="25.813" y="122.041" transform="matrix(0.8669 -0.4985 0.4985 0.8669 -61.3337 30.452)" fill="#58595B" width="1.088" height="16.077"/>
	<path fill="#58595B" d="M178.344,131.312l17.419,10.058l0.544-0.943l-17.963-10.371l-17.69,10.215l-17.691-10.215l-17.69,10.215
		l-17.147-9.901v-20.426L90.437,99.73V81.414h-1.088V99.73l-17.149,9.9l-16.767-9.682l10.157-17.594l-10.329-17.89l9.942-17.217
		l-0.942-0.543l-10.06,17.417H34.01L23.481,82.354L33.7,100.053l-9.896,17.137H3.692v1.087h20.174l10.056,17.418l0.942-0.543
		L24.777,117.68l9.871-17.092h19.717l17.293,9.984v19.798l-15.326,8.849c-0.533-0.5-1.249-0.819-2.106-0.819
		c-1.854,0-3.115,1.47-3.115,3.157c0,1.688,1.245,3.14,3.098,3.14c1.854,0,3.114-1.47,3.114-3.158c0-0.516-0.127-1.002-0.343-1.439
		l15.221-8.788l17.693,10.215l17.691-10.215l17.69,10.215l17.69-10.215l17.691,10.215L178.344,131.312z M34.635,65.209h19.8
		l9.901,17.146L54.435,99.5h-19.8l-9.898-17.146L34.635,65.209z M56.61,141.556c0,1.393-0.991,2.505-2.384,2.505
		c-1.392,0-2.401-1.131-2.401-2.522c0-1.392,0.992-2.506,2.384-2.506c0.588,0,1.098,0.209,1.502,0.546l-1.47,0.848l0.543,0.943
		l1.588-0.918C56.519,140.787,56.61,141.159,56.61,141.556z M107.04,130.37l-17.147,9.901l-17.149-9.901v-19.798l17.133-9.891h0.032
		l17.131,9.891V130.37z"/>
	<rect x="74.9" y="113.095" fill="#58595B" width="1.087" height="14.753"/>
	<path fill="#58595B" d="M86.577,79.299c1.851,0,3.112-1.47,3.112-3.158c0-1.687-1.242-3.14-3.095-3.14
		c-1.854,0-3.117,1.47-3.117,3.158C83.477,77.847,84.723,79.299,86.577,79.299z M86.577,73.635c1.392,0,2.401,1.132,2.401,2.523
		c0,1.392-0.992,2.505-2.384,2.505c-1.392,0-2.403-1.131-2.403-2.523C84.191,74.749,85.183,73.635,86.577,73.635z"/>
	<polygon fill="#58595B" points="91.834,76.455 95.347,76.455 95.347,79.194 96.035,79.194 96.035,73.105 95.347,73.105 
		95.347,75.81 91.834,75.81 91.834,73.105 91.146,73.105 91.146,79.194 91.834,79.194 	"/>
	<path fill="#58595B" d="M91.705,113.425h-2.829l1.426-1.264c0.939-0.815,1.348-1.296,1.348-2.08c0-0.878-0.682-1.517-1.653-1.517
		c-0.937,0-1.439,0.418-1.92,1.135l0.443,0.321c0.424-0.595,0.821-0.916,1.431-0.916c0.579,0,1.074,0.396,1.074,1.022
		c0,0.532-0.296,0.944-1.11,1.676l-1.936,1.706v0.465h3.725V113.425z"/>
	<path fill="#58595B" d="M91.777,130.706c0-1.021-0.808-1.637-1.845-1.637c-0.442,0-0.739,0.098-1.05,0.236l0.113-1.708h2.544
		v-0.556h-3.071l-0.149,2.599l0.401,0.267c0.314-0.168,0.671-0.304,1.123-0.304c0.783,0,1.324,0.456,1.324,1.128
		c0,0.686-0.525,1.188-1.286,1.188c-0.544,0-1.052-0.281-1.518-0.73l-0.395,0.433c0.48,0.48,1.143,0.846,1.903,0.846
		C90.985,132.466,91.777,131.758,91.777,130.706z"/>
	<path fill="#58595B" d="M99.434,117.535c-0.656,0-1.15-0.289-1.563-0.792l-0.433,0.389c0.433,0.564,1.096,0.952,1.989,0.952
		c0.989,0,1.782-0.655,1.782-1.615c0-0.983-0.822-1.433-1.763-1.509l1.678-1.859v-0.442h-3.406v0.541h2.607l-1.686,1.896
		l0.126,0.358h0.34c0.885,0,1.494,0.366,1.494,1.036C100.599,117.125,100.082,117.535,99.434,117.535z"/>
	<path fill="#58595B" d="M99.38,127.327c-0.541,0-1.052-0.281-1.518-0.731l-0.396,0.434c0.483,0.481,1.145,0.846,1.906,0.846
		c1.113,0,1.906-0.708,1.906-1.76c0-1.021-0.807-1.639-1.845-1.639c-0.443,0-0.741,0.099-1.054,0.236l0.116-1.706h2.544v-0.556
		h-3.068l-0.154,2.598l0.403,0.267c0.313-0.167,0.67-0.305,1.121-0.305c0.783,0,1.326,0.458,1.326,1.128
		C100.668,126.825,100.145,127.327,99.38,127.327z"/>
	<polygon fill="#58595B" points="80.615,117.994 81.211,117.994 81.211,112.621 80.769,112.621 79.464,113.07 79.61,113.558 
		80.615,113.246 	"/>
	<path fill="#58595B" d="M81.859,124.446c-0.778,0-1.23,0.39-1.519,0.817c-0.005-1.38,0.596-2.355,1.563-2.355
		c0.487,0,0.862,0.19,1.258,0.526l0.349-0.465c-0.464-0.381-0.936-0.609-1.576-0.609c-1.395,0-2.217,1.272-2.217,2.903
		c0,1.098,0.244,1.645,0.671,2.072c0.334,0.335,0.813,0.541,1.4,0.541c1.083,0,1.915-0.747,1.915-1.782
		C83.704,125.087,82.858,124.446,81.859,124.446z M81.798,127.343c-0.786,0-1.349-0.51-1.349-1.204c0-0.601,0.533-1.173,1.333-1.173
		c0.769,0,1.304,0.487,1.304,1.15C83.086,126.802,82.581,127.343,81.798,127.343z"/>
	<path fill="#58595B" d="M39.512,71.136v1.264h0.58v-1.264h0.827v-0.504h-0.827v-3.604h-0.528L36.546,70.7l0.154,0.436H39.512z
		 M39.512,67.881v2.75h-2.239L39.512,67.881z"/>
	<path fill="#58595B" d="M50.561,71.943c-0.654,0-1.15-0.289-1.561-0.792l-0.433,0.388c0.433,0.564,1.096,0.952,1.988,0.952
		c0.992,0,1.785-0.655,1.785-1.615c0-0.984-0.826-1.433-1.763-1.51l1.678-1.859v-0.442h-3.408v0.541h2.607l-1.686,1.897l0.124,0.359
		h0.341c0.884,0,1.494,0.366,1.494,1.036C51.727,71.532,51.21,71.943,50.561,71.943z"/>
	<path fill="#58595B" d="M31.899,81.893c-0.443,0-0.738,0.098-1.052,0.236l0.115-1.707h2.544v-0.556h-3.07l-0.154,2.599l0.404,0.267
		c0.313-0.168,0.671-0.306,1.12-0.306c0.786,0,1.327,0.457,1.327,1.128c0,0.686-0.525,1.189-1.286,1.189
		c-0.541,0-1.054-0.281-1.517-0.732l-0.398,0.436c0.481,0.481,1.143,0.846,1.907,0.846c1.11,0,1.904-0.709,1.904-1.761
		C33.744,82.511,32.935,81.893,31.899,81.893z"/>
	<path fill="#58595B" d="M58.846,84.651h-2.829l1.425-1.265c0.937-0.814,1.349-1.295,1.349-2.08c0-0.876-0.686-1.517-1.654-1.517
		c-0.937,0-1.437,0.42-1.918,1.136l0.442,0.32c0.426-0.594,0.822-0.915,1.433-0.915c0.579,0,1.074,0.396,1.074,1.021
		c0,0.533-0.296,0.944-1.112,1.676l-1.936,1.706v0.465h3.727V84.651z"/>
	<path fill="#58595B" d="M39.935,92.567c0.486,0,0.86,0.19,1.255,0.527l0.351-0.465c-0.462-0.381-0.937-0.61-1.576-0.61
		c-1.395,0-2.217,1.273-2.217,2.903c0,1.098,0.244,1.647,0.67,2.073c0.335,0.335,0.818,0.54,1.403,0.54
		c1.082,0,1.912-0.747,1.912-1.782c0-1.006-0.846-1.647-1.845-1.647c-0.775,0-1.225,0.389-1.514,0.815
		C38.364,93.542,38.966,92.567,39.935,92.567z M39.812,94.624c0.771,0,1.302,0.489,1.302,1.152c0,0.686-0.502,1.226-1.286,1.226
		c-0.786,0-1.349-0.51-1.349-1.204C38.479,95.196,39.012,94.624,39.812,94.624z"/>
	<polygon fill="#58595B" points="49.277,92.522 49.422,93.009 50.429,92.698 50.429,97.444 51.023,97.444 51.023,92.073 
		50.581,92.073 	"/>
	<polygon fill="#58595B" points="55.976,149.912 52.46,149.912 52.46,147.207 51.775,147.207 51.775,153.296 52.46,153.296 
		52.46,150.556 55.976,150.556 55.976,153.296 56.664,153.296 56.664,147.207 55.976,147.207 	"/>
</g>
</svg>
