<?xml version="1.0" encoding="utf-8"?>
<!-- Generator: Adobe Illustrator 17.0.0, SVG Export Plug-In . SVG Version: 6.00 Build 0)  -->
<!DOCTYPE svg PUBLIC "-//W3C//DTD SVG 1.1//EN" "http://www.w3.org/Graphics/SVG/1.1/DTD/svg11.dtd">
<svg version="1.1" id="Capa_1" xmlns="http://www.w3.org/2000/svg" xmlns:xlink="http://www.w3.org/1999/xlink" x="0px" y="0px"
	 width="200px" height="200px" viewBox="0 0 200 200" enable-background="new 0 0 200 200" xml:space="preserve">
<g>
	<polygon fill="#58595B" points="59.35,126.775 55.925,126.775 55.925,124.139 55.257,124.139 55.257,130.075 55.925,130.075 
		55.925,127.404 59.35,127.404 59.35,130.075 60.018,130.075 60.018,124.139 59.35,124.139 	"/>
	<path fill="#58595B" d="M160.376,117.375l-17.236-9.953l-17.239,9.953l-16.255-9.387V87.821l-17.237-9.95V60.022h-1.06v17.849
		L74.64,87.516l-17.236-9.951L40.028,87.598l-16.85-9.727V59.4H22.12v18.471l-17.239,9.95v20.52l17.239,9.95v19.171L5.148,147.26
		l0.529,0.916l16.972-9.799l16.974,9.799l0.529-0.916l-16.972-9.799v-19.6h-0.458l0.193-0.335l-16.971-9.798V88.434l16.706-9.645
		l16.974,9.799l0.406-0.7l0.401,0.7l16.974-9.799l16.707,9.645v1.32h-0.277v18.134l-14.346,8.285
		c-0.496-0.378-1.117-0.614-1.842-0.614c-1.807,0-3.036,1.432-3.036,3.076c0,1.644,1.215,3.061,3.017,3.061
		c1.808,0,3.034-1.433,3.034-3.078c0-0.596-0.162-1.159-0.454-1.64l14.432-8.331l17.237,9.953l17.014-9.822l17.011,9.822
		l17.239-9.953l17.236,9.953l17.24-9.953l16.971,9.801l0.532-0.918l-17.503-10.106L160.376,117.375z M59.969,118.634
		c0,1.357-0.967,2.44-2.323,2.44c-1.358,0-2.338-1.1-2.338-2.457c0-1.355,0.965-2.441,2.32-2.441c0.463,0,0.878,0.134,1.229,0.359
		l-1.718,0.994l0.53,0.918l1.946-1.125C59.839,117.703,59.969,118.149,59.969,118.634z M75.17,107.728V88.434l16.692-9.639h0.034
		l16.692,9.639v19.294l-16.71,9.648L75.17,107.728z"/>
	
		<rect x="25.551" y="80.007" transform="matrix(-0.8659 -0.5001 0.5001 -0.8659 22.0106 166.9741)" fill="#58595B" width="15.664" height="1.06"/>
	<path fill="#58595B" d="M88.647,57.96c1.805,0,3.033-1.431,3.033-3.075c0-1.644-1.211-3.061-3.016-3.061
		c-1.807,0-3.037,1.432-3.037,3.076C85.627,56.543,86.84,57.96,88.647,57.96z M88.647,52.442c1.356,0,2.34,1.102,2.34,2.458
		c0,1.356-0.968,2.441-2.323,2.441c-1.358,0-2.341-1.101-2.341-2.456C86.322,53.528,87.289,52.442,88.647,52.442z"/>
	<polygon fill="#58595B" points="93.77,55.188 97.194,55.188 97.194,57.859 97.862,57.859 97.862,51.924 97.194,51.924 
		97.194,54.561 93.77,54.561 93.77,51.924 93.101,51.924 93.101,57.859 93.77,57.859 	"/>
	
		<rect x="98.132" y="101.997" transform="matrix(-0.5002 -0.8659 0.8659 -0.5002 52.9038 250.1973)" fill="#58595B" width="1.06" height="15.665"/>
	
		<rect x="90.828" y="85.803" transform="matrix(-0.866 -0.5 0.5 -0.866 140.9364 210.431)" fill="#58595B" width="15.666" height="1.059"/>
	<rect x="77.269" y="90.892" fill="#58595B" width="1.059" height="14.377"/>
	<rect x="18.96" y="120.624" fill="#58595B" width="1.059" height="14.376"/>
	<polygon fill="#58595B" points="33.954,96.726 36.317,91.967 36.317,91.528 32.788,91.528 32.788,92.062 35.649,92.062 
		33.301,96.726 	"/>
	<path fill="#58595B" d="M22.788,84.96c-0.757,0-1.194,0.379-1.479,0.794c-0.006-1.345,0.581-2.294,1.525-2.294
		c0.473,0,0.837,0.186,1.223,0.513l0.342-0.454c-0.452-0.37-0.913-0.595-1.537-0.595c-1.358,0-2.161,1.241-2.161,2.83
		c0,1.07,0.239,1.604,0.654,2.021c0.326,0.327,0.794,0.526,1.365,0.526c1.056,0,1.863-0.726,1.863-1.738
		C24.584,85.584,23.761,84.96,22.788,84.96z M22.727,87.78c-0.763,0-1.312-0.496-1.312-1.172c0-0.586,0.519-1.142,1.298-1.142
		c0.751,0,1.27,0.474,1.27,1.12C23.983,87.255,23.493,87.78,22.727,87.78z"/>
	<path fill="#58595B" d="M55.787,86.81c0,0.875,0.846,1.476,1.952,1.476s1.951-0.595,1.951-1.485c0-0.624-0.452-1.048-1.066-1.279
		c0.483-0.22,0.89-0.593,0.89-1.202c0-0.811-0.824-1.381-1.774-1.381c-0.95,0-1.775,0.57-1.775,1.381
		c0,0.609,0.409,0.982,0.89,1.202C56.23,85.748,55.787,86.184,55.787,86.81z M56.55,84.359c0-0.526,0.513-0.905,1.189-0.905
		c0.674,0,1.188,0.384,1.188,0.905c0,0.572-0.527,0.958-1.188,0.958S56.55,84.93,56.55,84.359z M57.739,85.799
		c0.757,0,1.359,0.408,1.359,0.994c0,0.537-0.506,0.982-1.359,0.982c-0.854,0-1.359-0.445-1.359-0.982
		C56.38,86.207,56.982,85.799,57.739,85.799z"/>
	<path fill="#58595B" d="M22.691,113.005c-0.637,0-1.12-0.281-1.523-0.774l-0.421,0.38c0.421,0.55,1.067,0.927,1.938,0.927
		c0.964,0,1.736-0.638,1.736-1.573c0-0.957-0.802-1.397-1.715-1.47l1.635-1.812v-0.431h-3.319v0.529h2.537l-1.638,1.849l0.116,0.347
		h0.334c0.86,0,1.454,0.357,1.454,1.011C23.827,112.605,23.323,113.005,22.691,113.005z"/>
	<path fill="#58595B" d="M10.848,96.281c-0.526,0-1.025-0.276-1.477-0.713l-0.385,0.422c0.467,0.468,1.114,0.824,1.854,0.824
		c1.086,0,1.859-0.69,1.859-1.713c0-0.998-0.788-1.598-1.797-1.598c-0.431,0-0.72,0.095-1.025,0.23l0.112-1.662h2.479v-0.544H9.476
		l-0.149,2.534l0.394,0.258c0.303-0.163,0.651-0.296,1.091-0.296c0.763,0,1.29,0.445,1.29,1.099
		C12.103,95.79,11.593,96.281,10.848,96.281z"/>
	<path fill="#58595B" d="M12.365,106.267v-1.232h0.807v-0.49h-0.807v-3.512h-0.513l-2.941,3.579l0.149,0.424h2.74v1.232H12.365z
		 M9.617,104.544l2.182-2.679v2.679H9.617z"/>
	<polygon fill="#58595B" points="38.62,138.237 38.763,138.712 39.745,138.407 39.745,143.034 40.321,143.034 40.321,137.798 
		39.892,137.798 	"/>
	<path fill="#58595B" d="M27.927,133.736l-1.886,1.662v0.453h3.63v-0.537h-2.755l1.391-1.231c0.912-0.795,1.31-1.26,1.31-2.027
		c0-0.854-0.664-1.477-1.611-1.477c-0.913,0-1.4,0.409-1.869,1.105l0.432,0.313c0.412-0.58,0.8-0.891,1.394-0.891
		c0.562,0,1.047,0.387,1.047,0.995C29.011,132.621,28.723,133.021,27.927,133.736z"/>
</g>
</svg>
