<?xml version="1.0" encoding="utf-8"?>
<!-- Generator: Adobe Illustrator 17.0.0, SVG Export Plug-In . SVG Version: 6.00 Build 0)  -->
<!DOCTYPE svg PUBLIC "-//W3C//DTD SVG 1.1//EN" "http://www.w3.org/Graphics/SVG/1.1/DTD/svg11.dtd">
<svg version="1.1" id="Capa_1" xmlns="http://www.w3.org/2000/svg" xmlns:xlink="http://www.w3.org/1999/xlink" x="0px" y="0px"
	 width="200px" height="200px" viewBox="0 0 200 200" enable-background="new 0 0 200 200" xml:space="preserve">
<g>
	
		<rect x="88.65" y="125.976" transform="matrix(-0.5005 -0.8657 0.8657 -0.5005 17.3918 279.1644)" fill="#58595B" width="1.162" height="17.179"/>
	
		<rect x="80.643" y="108.219" transform="matrix(-0.8661 -0.4999 0.4999 -0.8661 112.1159 247.6387)" fill="#58595B" width="17.177" height="1.162"/>
	<path fill="#58595B" d="M157.404,142.84l-18.902-10.916L119.6,142.84l-18.321-10.579v-21.826L82.375,99.522V79.948h-1.163v19.574
		l-18.323,10.575L44.57,99.522V77.83L25.668,66.917V46.666h-1.164v20.252L5.601,77.83v22.498l18.902,10.914v20.774H4.497v1.162
		h19.564L12.38,152.737l1,0.597l11.91-19.948l18.699,10.795l18.901-10.912l18.904,10.912l18.902-10.914l18.904,10.914l18.902-10.914
		l18.902,10.914l18.904-10.914l18.613,10.746l0.581-1.006l-19.195-11.082L157.404,142.84z M6.762,78.502l18.324-10.58l18.321,10.58
		v21.02l-18.442,10.644L6.762,99.656V78.502z M25.668,132.26v-21.019l18.438-10.646l18.202,10.511v21.154L43.989,142.84
		L25.668,132.26z M100.116,132.26L81.793,142.84L63.472,132.26v-21.154l18.306-10.573h0.029l18.309,10.573V132.26z"/>
	<rect x="65.774" y="113.802" fill="#58595B" width="1.163" height="15.764"/>
	<path fill="#58595B" d="M78.248,77.687c1.981,0,3.327-1.571,3.327-3.374c0-1.803-1.326-3.356-3.307-3.356
		c-1.981,0-3.329,1.572-3.329,3.375C74.939,76.136,76.27,77.687,78.248,77.687z M78.248,71.637c1.489,0,2.568,1.207,2.568,2.695
		c0,1.486-1.06,2.676-2.547,2.676c-1.489,0-2.566-1.207-2.566-2.695S76.762,71.637,78.248,71.637z"/>
	<polygon fill="#58595B" points="83.865,74.648 87.621,74.648 87.621,77.577 88.357,77.577 88.357,71.069 87.621,71.069 
		87.621,73.96 83.865,73.96 83.865,71.069 83.133,71.069 83.133,77.577 83.865,77.577 	"/>
	<polygon fill="#58595B" points="82.428,114.739 82.428,108.999 81.956,108.999 80.563,109.48 80.718,110.001 81.795,109.667 
		81.795,114.739 	"/>
	<path fill="#58595B" d="M82.581,134.402h0.62v-1.35h0.884v-0.54h-0.884v-3.851h-0.565l-3.225,3.924l0.165,0.467h3.004V134.402z
		 M80.187,132.512l2.395-2.937v2.937H80.187z"/>
	<path fill="#58595B" d="M92.023,116.715l-2.072,1.823v0.496h3.982v-0.586h-3.019l1.519-1.353c1.005-0.869,1.443-1.381,1.443-2.223
		c0-0.935-0.732-1.618-1.766-1.618c-1.002,0-1.539,0.448-2.053,1.212l0.472,0.344c0.457-0.635,0.882-0.978,1.533-0.978
		c0.618,0,1.146,0.424,1.146,1.091C93.208,115.492,92.892,115.933,92.023,116.715z"/>
	<path fill="#58595B" d="M91.986,129.009c-0.699,0-1.227-0.31-1.667-0.847l-0.462,0.417c0.462,0.601,1.17,1.017,2.122,1.017
		c1.06,0,1.907-0.7,1.907-1.726c0-1.052-0.882-1.531-1.884-1.612l1.791-1.987v-0.471h-3.64v0.577h2.786l-1.8,2.027l0.131,0.384
		h0.366c0.944,0,1.596,0.39,1.596,1.106C93.235,128.569,92.68,129.009,91.986,129.009z"/>
	<path fill="#58595B" d="M44.029,133.194c-0.472,0-0.788,0.104-1.124,0.253l0.123-1.824h2.72v-0.596h-3.28l-0.163,2.778l0.43,0.283
		c0.334-0.179,0.716-0.324,1.196-0.324c0.84,0,1.415,0.488,1.415,1.206c0,0.73-0.558,1.27-1.374,1.27
		c-0.576,0-1.122-0.303-1.618-0.781l-0.425,0.464c0.514,0.512,1.223,0.902,2.037,0.902c1.188,0,2.035-0.756,2.035-1.88
		C46,133.852,45.138,133.194,44.029,133.194z"/>
	<path fill="#58595B" d="M31.356,115.468c-0.83,0-1.309,0.416-1.618,0.871c-0.008-1.472,0.633-2.516,1.67-2.516
		c0.517,0,0.919,0.204,1.341,0.562l0.375-0.495c-0.494-0.408-1-0.651-1.685-0.651c-1.49,0-2.367,1.359-2.367,3.1
		c0,1.173,0.259,1.758,0.718,2.214c0.358,0.359,0.869,0.58,1.497,0.58c1.154,0,2.043-0.799,2.043-1.905
		C33.329,116.152,32.423,115.468,31.356,115.468z M31.292,118.563c-0.838,0-1.44-0.546-1.44-1.289c0-0.642,0.57-1.252,1.425-1.252
		c0.822,0,1.393,0.521,1.393,1.231C32.67,117.982,32.132,118.563,31.292,118.563z"/>
	<path fill="#58595B" d="M36.125,114.768c-0.608,0-1.067,0.14-1.529,0.35l0.187,0.513c0.388-0.18,0.783-0.308,1.277-0.308
		c0.791,0,1.255,0.392,1.255,1.146v0.148c-0.375-0.106-0.758-0.179-1.297-0.179c-1.062,0-1.796,0.472-1.796,1.365
		c0,0.882,0.79,1.32,1.571,1.32c0.739,0,1.227-0.339,1.522-0.723v0.635h0.603v-2.573C37.918,115.355,37.276,114.768,36.125,114.768z
		 M37.321,117.487c0,0.668-0.635,1.141-1.406,1.141c-0.571,0-1.059-0.312-1.059-0.847c0-0.539,0.437-0.881,1.228-0.881
		c0.513,0,0.928,0.091,1.237,0.18V117.487z"/>
	<path fill="#58595B" d="M31.356,125.931c-0.83,0-1.309,0.415-1.618,0.872c-0.008-1.474,0.633-2.516,1.67-2.516
		c0.517,0,0.919,0.204,1.341,0.562l0.375-0.496c-0.494-0.408-1-0.651-1.685-0.651c-1.49,0-2.367,1.359-2.367,3.102
		c0,1.171,0.259,1.758,0.718,2.212c0.358,0.36,0.869,0.581,1.497,0.581c1.154,0,2.043-0.801,2.043-1.905
		C33.329,126.613,32.423,125.931,31.356,125.931z M31.292,129.025c-0.838,0-1.44-0.544-1.44-1.287c0-0.643,0.57-1.254,1.425-1.254
		c0.822,0,1.393,0.523,1.393,1.231C32.67,128.446,32.132,129.025,31.292,129.025z"/>
	<polygon fill="#58595B" points="33.228,82.522 33.228,87.593 33.861,87.593 33.861,81.855 33.389,81.855 31.998,82.333 
		32.152,82.856 	"/>
	<path fill="#58595B" d="M37.588,87.692c1.467,0,2.411-1.354,2.411-2.958c0-1.601-0.929-2.939-2.395-2.939
		c-1.472,0-2.418,1.353-2.418,2.957C35.187,86.356,36.113,87.692,37.588,87.692z M37.588,82.383c1.065,0,1.744,1.115,1.744,2.369
		c0,1.252-0.662,2.352-1.727,2.352c-1.067,0-1.749-1.106-1.749-2.369C35.856,83.473,36.523,82.383,37.588,82.383z"/>
	<polygon fill="#58595B" points="28.514,92.985 28.514,98.057 29.151,98.057 29.151,92.318 28.677,92.318 27.286,92.796 
		27.441,93.319 	"/>
	<path fill="#58595B" d="M32.88,98.154c1.462,0,2.408-1.353,2.408-2.956c0-1.603-0.927-2.941-2.393-2.941
		c-1.475,0-2.418,1.353-2.418,2.957C30.477,96.818,31.406,98.154,32.88,98.154z M32.88,92.847c1.064,0,1.739,1.115,1.739,2.368
		c0,1.254-0.66,2.352-1.724,2.352c-1.069,0-1.751-1.106-1.751-2.368S31.811,92.847,32.88,92.847z"/>
	<path fill="#58595B" d="M38.076,93.79c-0.612,0-1.065,0.139-1.529,0.351l0.187,0.513c0.391-0.179,0.781-0.312,1.279-0.312
		c0.788,0,1.255,0.393,1.255,1.15v0.147c-0.376-0.107-0.761-0.18-1.296-0.18c-1.067,0-1.801,0.472-1.801,1.368
		c0,0.878,0.79,1.32,1.571,1.32c0.744,0,1.232-0.344,1.526-0.726v0.636h0.598v-2.574C39.865,94.377,39.223,93.79,38.076,93.79z
		 M39.27,96.508c0,0.667-0.632,1.14-1.408,1.14c-0.568,0-1.057-0.308-1.057-0.847c0-0.536,0.44-0.879,1.23-0.879
		c0.514,0,0.928,0.092,1.235,0.179V96.508z"/>
	<path fill="#58595B" d="M24.87,77.77c-0.502,0-0.934-0.204-1.398-0.611l-0.375,0.497c0.479,0.397,1.018,0.7,1.756,0.7
		c1.411,0,2.371-1.279,2.371-3.095c0-1.147-0.259-1.767-0.707-2.214c-0.37-0.365-0.847-0.586-1.499-0.586
		c-1.212,0-2.053,0.854-2.053,1.946c0,1.032,0.817,1.773,1.988,1.773c0.792,0,1.304-0.413,1.611-0.911
		C26.59,76.728,25.898,77.77,24.87,77.77z M25.028,75.628c-0.832,0-1.401-0.522-1.401-1.255c0-0.716,0.514-1.341,1.365-1.341
		c0.857,0,1.45,0.569,1.45,1.3C26.441,74.992,25.898,75.628,25.028,75.628z"/>
	<path fill="#58595B" d="M13.203,84.648c0.531-0.246,0.976-0.652,0.976-1.319c0-0.888-0.904-1.515-1.944-1.515
		c-1.042,0-1.946,0.627-1.946,1.515c0,0.667,0.447,1.073,0.976,1.319c-0.686,0.242-1.173,0.723-1.173,1.407
		c0,0.96,0.927,1.618,2.142,1.618c1.215,0,2.141-0.648,2.141-1.628C14.376,85.362,13.88,84.899,13.203,84.648z M10.933,83.369
		c0-0.579,0.561-0.995,1.302-0.995c0.741,0,1.302,0.425,1.302,0.995c0,0.627-0.578,1.049-1.302,1.049
		C11.509,84.418,10.933,83.996,10.933,83.369z M12.235,87.113c-0.936,0-1.49-0.488-1.49-1.075c0-0.644,0.659-1.092,1.49-1.092
		c0.83,0,1.489,0.449,1.489,1.092C13.724,86.625,13.173,87.113,12.235,87.113z"/>
	<polygon fill="#58595B" points="10.224,92.943 13.359,92.943 10.785,98.057 11.501,98.057 14.094,92.837 14.094,92.355 
		10.224,92.355 	"/>
	<path fill="#58595B" d="M43.995,145.49c-1.979,0-3.329,1.569-3.329,3.373c0,1.803,1.329,3.357,3.31,3.357
		c1.979,0,3.326-1.572,3.326-3.375C47.302,147.042,45.975,145.49,43.995,145.49z M43.995,151.539c-1.487,0-2.566-1.207-2.566-2.695
		c0-1.486,1.06-2.676,2.547-2.676c1.487,0,2.566,1.207,2.566,2.694C46.543,150.35,45.482,151.539,43.995,151.539z"/>
</g>
</svg>
