<?xml version="1.0" encoding="utf-8"?>
<!-- Generator: Adobe Illustrator 19.1.0, SVG Export Plug-In . SVG Version: 6.00 Build 0)  -->
<!DOCTYPE svg PUBLIC "-//W3C//DTD SVG 1.1//EN" "http://www.w3.org/Graphics/SVG/1.1/DTD/svg11.dtd">
<svg version="1.1" id="Layer_1" xmlns="http://www.w3.org/2000/svg" xmlns:xlink="http://www.w3.org/1999/xlink" x="0px" y="0px"
	 viewBox="0 0 200 200" style="enable-background:new 0 0 200 200;" xml:space="preserve">
<path id="XMLID_3_" d="M116,70.7c0.7-0.7,1-1.7,1-2.7s-0.2-1.9-1-2.7L61.7,11c-1.5-1.5-3.6-1.5-5.1,0L2.1,65.6
	c-1.5,1.5-1.5,3.6,0,5.1s3.6,1.5,5.1,0l51.9-51.9L111,70.7C112.4,72.2,114.6,72.2,116,70.7z"/>
<path id="XMLID_1_" d="M2,129.3C1.3,130,1,131,1,132s0.2,1.9,1,2.7L56.3,189c1.5,1.5,3.6,1.5,5.1,0l54.5-54.5c1.5-1.5,1.5-3.6,0-5.1
	s-3.6-1.5-5.1,0l-51.9,51.9L7,129.4C5.6,127.8,3.4,127.8,2,129.3z"/>
</svg>
