<?xml version="1.0" encoding="utf-8"?>
<!-- Generator: Adobe Illustrator 17.0.0, SVG Export Plug-In . SVG Version: 6.00 Build 0)  -->
<!DOCTYPE svg PUBLIC "-//W3C//DTD SVG 1.1//EN" "http://www.w3.org/Graphics/SVG/1.1/DTD/svg11.dtd">
<svg version="1.1" id="Capa_1" xmlns="http://www.w3.org/2000/svg" xmlns:xlink="http://www.w3.org/1999/xlink" x="0px" y="0px"
	 width="200px" height="200px" viewBox="0 0 200 200" enable-background="new 0 0 200 200" xml:space="preserve">
<g>
	
		<rect x="88.533" y="126.249" transform="matrix(-0.5013 -0.8653 0.8653 -0.5013 17.0427 279.6785)" fill="#58595B" width="1.175" height="17.358"/>
	
		<rect x="80.441" y="108.305" transform="matrix(-0.866 -0.5 0.5 -0.866 111.859 247.7552)" fill="#58595B" width="17.359" height="1.175"/>
	<path fill="#58595B" d="M177.11,133.615l18.807,10.86l0.586-1.018l-19.392-11.198l-19.102,11.029l-19.1-11.029l-19.102,11.029
		l-18.514-10.69v-22.055L82.193,99.515V79.738h-1.175v19.777l-18.513,10.69L43.99,99.515V77.599L24.888,66.571V46.107h-1.173v20.464
		L4.613,77.599v22.732l19.102,11.029v20.99H3.498v1.174h19.769l-11.806,19.767l1.01,0.602l12.038-20.159l18.892,10.91l19.104-11.029
		l19.1,11.029l19.102-11.029l19.098,11.029l19.102-11.029l19.1,11.029L177.11,133.615z M5.788,78.277l18.514-10.69l18.513,10.69
		v21.238L24.18,110.274L5.788,99.654V78.277z M24.888,132.598V111.36l18.633-10.758l18.394,10.62v21.377l-18.514,10.69
		L24.888,132.598z M100.118,132.598l-18.513,10.69l-18.514-10.69v-21.377l18.498-10.68h0.034l18.496,10.68V132.598z"/>
	<rect x="65.417" y="113.945" fill="#58595B" width="1.175" height="15.93"/>
	<path fill="#58595B" d="M78.021,77.455c2,0,3.364-1.588,3.364-3.41c0-1.822-1.341-3.391-3.343-3.391
		c-2.002,0-3.364,1.588-3.364,3.41C74.678,75.887,76.021,77.455,78.021,77.455z M78.021,71.339c1.503,0,2.593,1.222,2.593,2.724
		c0,1.503-1.07,2.705-2.572,2.705c-1.504,0-2.593-1.222-2.593-2.724C75.448,72.541,76.518,71.339,78.021,71.339z"/>
	<polygon fill="#58595B" points="83.7,74.384 87.494,74.384 87.494,77.342 88.236,77.342 88.236,70.767 87.494,70.767 
		87.494,73.688 83.7,73.688 83.7,70.767 82.957,70.767 82.957,77.342 83.7,77.342 	"/>
	<polygon fill="#58595B" points="82.247,114.894 82.247,109.094 81.77,109.094 80.364,109.58 80.52,110.106 81.605,109.769 
		81.605,114.894 	"/>
	<path fill="#58595B" d="M82.398,134.763h0.626v-1.365h0.898v-0.544h-0.898v-3.891h-0.569l-3.257,3.965l0.165,0.47h3.034V134.763z
		 M79.982,132.854l2.416-2.97v2.97H79.982z"/>
	<path fill="#58595B" d="M91.939,116.89l-2.09,1.843v0.502h4.024v-0.593h-3.055l1.542-1.366c1.01-0.88,1.455-1.397,1.455-2.246
		c0-0.945-0.742-1.636-1.786-1.636c-1.012,0-1.554,0.452-2.073,1.225l0.479,0.346c0.46-0.641,0.886-0.987,1.545-0.987
		c0.627,0,1.161,0.428,1.161,1.102C93.141,115.655,92.82,116.1,91.939,116.89z"/>
	<path fill="#58595B" d="M91.907,129.313c-0.708,0-1.245-0.312-1.686-0.855l-0.47,0.419c0.47,0.609,1.184,1.028,2.148,1.028
		c1.068,0,1.924-0.706,1.924-1.744c0-1.061-0.888-1.547-1.898-1.629l1.808-2.008v-0.476h-3.676v0.583h2.81l-1.815,2.049l0.131,0.387
		h0.37c0.954,0,1.611,0.395,1.611,1.119C93.163,128.869,92.604,129.313,91.907,129.313z"/>
	<path fill="#58595B" d="M43.447,133.542c-0.479,0-0.8,0.107-1.138,0.255l0.126-1.844h2.744v-0.6h-3.313l-0.165,2.807l0.435,0.288
		c0.338-0.181,0.725-0.329,1.211-0.329c0.846,0,1.433,0.493,1.433,1.217c0,0.74-0.569,1.284-1.391,1.284
		c-0.586,0-1.136-0.305-1.64-0.79l-0.428,0.469c0.521,0.519,1.236,0.914,2.058,0.914c1.202,0,2.058-0.765,2.058-1.901
		C45.437,134.208,44.564,133.542,43.447,133.542z"/>
	<path fill="#58595B" d="M30.639,115.631c-0.839,0-1.326,0.42-1.637,0.881c-0.009-1.489,0.642-2.544,1.686-2.544
		c0.528,0,0.931,0.206,1.357,0.569l0.38-0.503c-0.501-0.411-1.012-0.658-1.703-0.658c-1.506,0-2.396,1.374-2.396,3.135
		c0,1.184,0.265,1.776,0.725,2.237c0.362,0.362,0.881,0.584,1.515,0.584c1.168,0,2.065-0.807,2.065-1.925
		C32.631,116.322,31.717,115.631,30.639,115.631z M30.577,118.757c-0.851,0-1.459-0.551-1.459-1.3c0-0.65,0.576-1.267,1.44-1.267
		c0.83,0,1.407,0.526,1.407,1.242C31.965,118.173,31.422,118.757,30.577,118.757z"/>
	<path fill="#58595B" d="M35.456,114.923c-0.615,0-1.075,0.14-1.547,0.354l0.19,0.518c0.397-0.181,0.79-0.312,1.292-0.312
		c0.798,0,1.268,0.396,1.268,1.16v0.149c-0.38-0.107-0.768-0.181-1.307-0.181c-1.08,0-1.822,0.476-1.822,1.381
		c0,0.89,0.8,1.334,1.589,1.334c0.75,0,1.245-0.346,1.54-0.733v0.643h0.606v-2.601C37.266,115.517,36.618,114.923,35.456,114.923z
		 M36.667,117.671c0,0.675-0.642,1.153-1.425,1.153c-0.576,0-1.068-0.313-1.068-0.856c0-0.544,0.445-0.889,1.243-0.889
		c0.518,0,0.937,0.09,1.25,0.181V117.671z"/>
	<path fill="#58595B" d="M30.639,126.202c-0.839,0-1.326,0.421-1.637,0.882c-0.009-1.49,0.642-2.543,1.686-2.543
		c0.528,0,0.931,0.205,1.357,0.568l0.38-0.502c-0.501-0.411-1.012-0.657-1.703-0.657c-1.506,0-2.396,1.374-2.396,3.135
		c0,1.185,0.265,1.776,0.725,2.237c0.362,0.362,0.881,0.584,1.515,0.584c1.168,0,2.065-0.806,2.065-1.925
		C32.631,126.894,31.717,126.202,30.639,126.202z M30.577,129.33c-0.851,0-1.459-0.551-1.459-1.3c0-0.649,0.576-1.267,1.44-1.267
		c0.83,0,1.407,0.526,1.407,1.242C31.965,128.746,31.422,129.33,30.577,129.33z"/>
	<polygon fill="#58595B" points="32.529,82.339 32.529,87.465 33.169,87.465 33.169,81.665 32.692,81.665 31.286,82.149 
		31.442,82.677 	"/>
	<path fill="#58595B" d="M36.939,87.563c1.479,0,2.433-1.366,2.433-2.988c0-1.62-0.937-2.97-2.42-2.97
		c-1.489,0-2.443,1.365-2.443,2.988C34.509,86.213,35.45,87.563,36.939,87.563z M36.939,82.199c1.076,0,1.757,1.128,1.757,2.395
		c0,1.267-0.666,2.376-1.744,2.376c-1.077,0-1.769-1.118-1.769-2.394C35.183,83.301,35.859,82.199,36.939,82.199z"/>
	<polygon fill="#58595B" points="27.766,92.911 27.766,98.036 28.408,98.036 28.408,92.237 27.931,92.237 26.523,92.722 
		26.681,93.248 	"/>
	<path fill="#58595B" d="M32.176,98.136c1.481,0,2.433-1.366,2.433-2.987s-0.937-2.971-2.418-2.971
		c-1.489,0-2.443,1.367-2.443,2.988C29.748,96.786,30.687,98.136,32.176,98.136z M32.176,92.771c1.077,0,1.759,1.127,1.759,2.395
		c0,1.267-0.667,2.376-1.744,2.376c-1.078,0-1.769-1.117-1.769-2.393S31.098,92.771,32.176,92.771z"/>
	<path fill="#58595B" d="M37.431,93.726c-0.62,0-1.08,0.139-1.548,0.353l0.19,0.519c0.392-0.181,0.79-0.314,1.29-0.314
		c0.8,0,1.267,0.396,1.267,1.161v0.148c-0.379-0.108-0.764-0.182-1.309-0.182c-1.078,0-1.817,0.476-1.817,1.382
		c0,0.888,0.798,1.333,1.591,1.333c0.745,0,1.238-0.346,1.535-0.733v0.642h0.61v-2.6C39.239,94.318,38.589,93.726,37.431,93.726z
		 M38.64,96.473c0,0.674-0.643,1.152-1.423,1.152c-0.577,0-1.071-0.312-1.071-0.856c0-0.543,0.445-0.889,1.241-0.889
		c0.521,0,0.939,0.091,1.253,0.181V96.473z"/>
	<path fill="#58595B" d="M24.087,77.537c-0.511,0-0.948-0.206-1.418-0.617l-0.377,0.503c0.484,0.401,1.027,0.707,1.776,0.707
		c1.425,0,2.394-1.292,2.394-3.126c0-1.161-0.263-1.786-0.717-2.239c-0.368-0.369-0.856-0.592-1.511-0.592
		c-1.226,0-2.075,0.863-2.075,1.965c0,1.045,0.822,1.794,2.007,1.794c0.798,0,1.316-0.419,1.63-0.921
		C25.82,76.483,25.121,77.537,24.087,77.537z M24.241,75.373c-0.839,0-1.416-0.526-1.416-1.267c0-0.724,0.519-1.357,1.384-1.357
		c0.863,0,1.462,0.576,1.462,1.317C25.671,74.731,25.121,75.373,24.241,75.373z"/>
	<path fill="#58595B" d="M12.296,84.486c0.533-0.247,0.987-0.658,0.987-1.333c0-0.897-0.914-1.531-1.966-1.531
		c-1.054,0-1.968,0.633-1.968,1.531c0,0.675,0.455,1.086,0.988,1.333c-0.691,0.247-1.185,0.732-1.185,1.423
		c0,0.972,0.941,1.638,2.165,1.638c1.226,0,2.165-0.657,2.165-1.645C13.482,85.211,12.979,84.741,12.296,84.486z M10.001,83.195
		c0-0.585,0.569-1.004,1.316-1.004c0.749,0,1.316,0.428,1.316,1.004c0,0.633-0.584,1.061-1.316,1.061
		C10.585,84.256,10.001,83.828,10.001,83.195z M11.317,86.979c-0.946,0-1.504-0.494-1.504-1.087c0-0.65,0.666-1.103,1.504-1.103
		c0.839,0,1.505,0.453,1.505,1.103C12.821,86.485,12.262,86.979,11.317,86.979z"/>
	<polygon fill="#58595B" points="9.284,92.87 12.453,92.87 9.851,98.036 10.576,98.036 13.193,92.762 13.193,92.278 9.284,92.278 	
		"/>
	<path fill="#58595B" d="M43.41,145.967c-2,0-3.362,1.586-3.362,3.409c0,1.822,1.341,3.39,3.343,3.39
		c1.998,0,3.362-1.587,3.362-3.41C46.753,147.535,45.411,145.967,43.41,145.967z M43.41,152.081c-1.503,0-2.593-1.221-2.593-2.724
		c0-1.503,1.07-2.704,2.574-2.704c1.503,0,2.593,1.221,2.593,2.724C45.984,150.878,44.912,152.081,43.41,152.081z"/>
</g>
</svg>
